<svg width="18" height="4" viewBox="0 0 18 4" fill="none" xmlns="http://www.w3.org/2000/svg">
<path d="M16.6376 2.126C16.6376 1.99762 16.6869 1.86923 16.785 1.77121C16.9814 1.57472 16.9814 1.2568 16.785 1.06046L16.5956 0.869327C16.3991 0.672845 16.0812 0.672845 15.8848 0.869327L15.8456 0.908508C15.6492 1.10485 15.6492 1.42292 15.8456 1.61925L15.8562 1.62966C15.9432 1.71685 16.0502 1.78176 16.1665 1.82369C16.4189 1.91434 16.4783 2.0206 16.4789 2.12586C16.4785 2.23111 16.4189 2.33752 16.1665 2.42803C16.0502 2.46995 15.9432 2.53487 15.8562 2.62205L15.8456 2.63246C15.6492 2.8288 15.6492 3.14687 15.8456 3.34321L15.8848 3.38239C16.0813 3.57872 16.3992 3.57872 16.5956 3.38239L16.785 3.19125C16.9814 2.99477 16.9814 2.67685 16.785 2.48051C16.6869 2.38248 16.6378 2.2541 16.6376 2.12571V2.126Z" fill="#FF5640"/>
<path d="M17.4668 1.59569C17.1786 1.59569 16.8561 1.95786 16.8561 2.126C16.8561 2.29415 17.1786 2.65631 17.4668 2.65631C17.7549 2.65631 18 2.41892 18 2.126C18 1.83309 17.7548 1.59569 17.4668 1.59569Z" fill="#FF5640"/>
<path d="M1.12323 1.00971C0.46988 1.00971 0 1.47684 0 2.13207C0 2.7873 0.467277 3.25357 1.13104 3.25357C1.5052 3.25357 1.82588 3.13458 2.0147 2.92335L1.76819 2.55525C1.60612 2.72253 1.39316 2.78456 1.14752 2.78456C0.808771 2.78456 0.607807 2.60615 0.547518 2.30528H2.14583C2.15696 2.25612 2.16043 2.18716 2.16043 2.13193C2.16043 1.48104 1.74318 1.00957 1.12337 1.00957L1.12323 1.00971ZM0.548241 1.95627C0.605205 1.658 0.811229 1.47092 1.1121 1.47092C1.41296 1.47092 1.60352 1.6674 1.64226 1.95627H0.548241Z" fill="#232323"/>
<path d="M3.54636 1.00971C2.97484 1.00971 2.568 1.38909 2.568 1.91318V3.18822H3.0999V1.95121C3.0999 1.67275 3.29219 1.49694 3.54824 1.49694C3.80429 1.49694 3.99484 1.67448 3.99484 1.95121V3.18822H4.52675V1.91839C4.52675 1.38995 4.11817 1.00971 3.54665 1.00971H3.54636Z" fill="#232323"/>
<path d="M11.4197 2.54586C11.4103 2.57853 11.3827 2.59487 11.355 2.59501C11.3274 2.59501 11.2998 2.57853 11.2904 2.54586C11.2689 2.47429 10.7602 1.07521 10.7602 1.07521H10.1827L11.0646 3.18807H11.6456L12.5276 1.07521H11.95C11.95 1.07521 11.4414 2.47429 11.4198 2.54586H11.4197Z" fill="#232323"/>
<path d="M6.68385 1.12089C6.68385 1.23554 6.68906 1.2795 6.69426 1.31405H6.67793C6.56761 1.12089 6.29523 1.00378 6.00289 1.00378C5.38395 1.00378 4.94342 1.46759 4.94342 2.12875C4.94342 2.7899 5.3692 3.25371 5.98135 3.25371C6.30376 3.25371 6.57961 3.12012 6.71581 2.88041H6.73041C6.72607 2.92523 6.72173 2.98812 6.72173 3.0795V3.18807H7.20622V0.470001H6.68385V1.12089ZM6.08906 2.78036C5.73643 2.78036 5.47706 2.50884 5.47706 2.12181C5.47706 1.73477 5.73658 1.46571 6.08906 1.46571C6.44154 1.46571 6.70366 1.73636 6.70366 2.12181C6.70366 2.50725 6.44675 2.78036 6.08906 2.78036Z" fill="#232323"/>
<path d="M14.3853 1.07521V1.16918C14.3853 1.28065 14.3894 1.32576 14.3929 1.36248V1.36393H14.3785C14.2707 1.16224 14.0138 1.00957 13.6734 1.00957C13.0605 1.00957 12.6113 1.47424 12.6113 2.13193C12.6113 2.78962 13.0362 3.25342 13.6518 3.25342C13.9897 3.25342 14.2603 3.10089 14.3785 2.87072H14.3931C14.3887 2.91988 14.3853 2.97843 14.3853 3.07241V3.18793H14.868V1.07521H14.3853ZM13.7533 2.78383C13.4015 2.78383 13.143 2.50971 13.143 2.12441C13.143 1.73911 13.4017 1.47092 13.7533 1.47092C14.1049 1.47092 14.3662 1.7407 14.3662 2.12441C14.3662 2.50812 14.1101 2.78383 13.7533 2.78383Z" fill="#232323"/>
<path d="M9.41031 1.16918C9.41031 1.28065 9.41451 1.32576 9.41798 1.36248V1.36393H9.40352C9.29581 1.16224 9.03889 1.00957 8.69841 1.00957C8.08554 1.00957 7.63634 1.47424 7.63634 2.13193C7.63634 2.78962 8.0614 3.25342 8.67687 3.25342C9.01475 3.25342 9.28554 3.10089 9.40352 2.87072H9.41812C9.41378 2.91988 9.41031 2.97843 9.41031 3.07241V3.18793H9.89306V1.07521H9.41031V1.16918ZM8.77836 2.78383C8.4266 2.78383 8.1681 2.50971 8.1681 2.12441C8.1681 1.73911 8.42675 1.47092 8.77836 1.47092C9.12998 1.47092 9.39123 1.7407 9.39123 2.12441C9.39123 2.50812 9.13518 2.78383 8.77836 2.78383Z" fill="#232323"/>
</svg>
