<svg xmlns="http://www.w3.org/2000/svg" xmlns:xlink="http://www.w3.org/1999/xlink" width="650" zoomAndPan="magnify" viewBox="0 0 487.5 247.499998" height="330" preserveAspectRatio="xMidYMid meet" version="1.2"><defs/><g id="97d5c614c1"><g style="fill:#000000;fill-opacity:1;"><g transform="translate(133.660904, 157.666233)"><path style="stroke:none" d="M 88.515625 -105.21875 L 88.515625 -37.375 C 88.515625 -24.445312 85.023438 -14.664062 78.046875 -8.03125 C 71.078125 -1.40625 60.875 1.90625 47.4375 1.90625 C 34.007812 1.90625 23.804688 -1.40625 16.828125 -8.03125 C 9.859375 -14.664062 6.375 -24.445312 6.375 -37.375 L 6.375 -105.21875 L 30.359375 -105.21875 L 30.359375 -44.390625 C 30.359375 -35.878906 31.695312 -29.96875 34.375 -26.65625 C 37.050781 -23.34375 41.40625 -21.6875 47.4375 -21.6875 C 53.476562 -21.6875 57.835938 -23.34375 60.515625 -26.65625 C 63.191406 -29.96875 64.53125 -35.878906 64.53125 -44.390625 L 64.53125 -105.21875 Z M 88.515625 -105.21875 "/></g></g><g style="fill:#000000;fill-opacity:1;"><g transform="translate(49.749689, 157.003945)"><path style="stroke:none" d="M 7.65625 -105.21875 L 45.28125 -105.21875 C 55.394531 -105.21875 63.640625 -102.519531 70.015625 -97.125 C 76.398438 -91.726562 79.59375 -84.015625 79.59375 -73.984375 C 79.59375 -66.242188 77.65625 -59.757812 73.78125 -54.53125 C 69.914062 -49.300781 64.664062 -45.625 58.03125 -43.5 L 94.25 0 L 63.765625 0 L 31.625 -41.578125 L 31.625 0 L 7.65625 0 Z M 31.625 -58.546875 L 34.4375 -58.546875 C 36.644531 -58.546875 38.515625 -58.585938 40.046875 -58.671875 C 41.578125 -58.753906 43.320312 -59.050781 45.28125 -59.5625 C 47.238281 -60.070312 48.8125 -60.796875 50 -61.734375 C 51.1875 -62.671875 52.203125 -64.03125 53.046875 -65.8125 C 53.898438 -67.601562 54.328125 -69.769531 54.328125 -72.3125 C 54.328125 -74.863281 53.898438 -77.03125 53.046875 -78.8125 C 52.203125 -80.601562 51.1875 -81.96875 50 -82.90625 C 48.8125 -83.84375 47.238281 -84.566406 45.28125 -85.078125 C 43.320312 -85.585938 41.578125 -85.882812 40.046875 -85.96875 C 38.515625 -86.050781 36.644531 -86.09375 34.4375 -86.09375 L 31.625 -86.09375 Z M 31.625 -58.546875 "/></g></g><g style="fill:#e21c1a;fill-opacity:1;"><g transform="translate(345.337976, 157.003945)"><path style="stroke:none" d="M 7.65625 -105.21875 L 45.28125 -105.21875 C 55.394531 -105.21875 63.640625 -102.519531 70.015625 -97.125 C 76.398438 -91.726562 79.59375 -84.015625 79.59375 -73.984375 C 79.59375 -66.242188 77.65625 -59.757812 73.78125 -54.53125 C 69.914062 -49.300781 64.664062 -45.625 58.03125 -43.5 L 94.25 0 L 63.765625 0 L 31.625 -41.578125 L 31.625 0 L 7.65625 0 Z M 31.625 -58.546875 L 34.4375 -58.546875 C 36.644531 -58.546875 38.515625 -58.585938 40.046875 -58.671875 C 41.578125 -58.753906 43.320312 -59.050781 45.28125 -59.5625 C 47.238281 -60.070312 48.8125 -60.796875 50 -61.734375 C 51.1875 -62.671875 52.203125 -64.03125 53.046875 -65.8125 C 53.898438 -67.601562 54.328125 -69.769531 54.328125 -72.3125 C 54.328125 -74.863281 53.898438 -77.03125 53.046875 -78.8125 C 52.203125 -80.601562 51.1875 -81.96875 50 -82.90625 C 48.8125 -83.84375 47.238281 -84.566406 45.28125 -85.078125 C 43.320312 -85.585938 41.578125 -85.882812 40.046875 -85.96875 C 38.515625 -86.050781 36.644531 -86.09375 34.4375 -86.09375 L 31.625 -86.09375 Z M 31.625 -58.546875 "/></g></g><g style="fill:#000000;fill-opacity:1;"><g transform="translate(225.219628, 157.953986)"><path style="stroke:none" d="M 94.640625 0 L 89.671875 -62.375 L 89.03125 -62.375 L 67.46875 -0.640625 L 53.1875 -0.640625 L 31.625 -62.375 L 31 -62.375 L 26.015625 0 L 2.046875 0 L 11.484375 -105.21875 L 36.984375 -105.21875 L 60.328125 -44.515625 L 83.671875 -105.21875 L 109.1875 -105.21875 L 118.625 0 Z M 94.640625 0 "/></g></g></g></svg>