<svg width="193" height="34" viewBox="0 0 193 34" fill="none" xmlns="http://www.w3.org/2000/svg">
<g clip-path="url(#clip0_1_13)">
<path d="M169.3 13.5793C169.3 10.9261 167.683 8.81017 163.899 8.81017H155.173V25.1953H157.529V18.3484H162.685L167.242 25.1953H169.969L165.311 18.2339C168.332 17.724 169.3 15.4798 169.3 13.5793ZM157.521 16.1915V11.0107H163.831C165.837 11.0107 166.945 11.9269 166.945 13.5847C166.945 15.2426 165.837 16.197 163.831 16.197L157.521 16.1915Z" fill="#060606"/>
<path d="M132.582 18.0294C132.582 21.3969 130.842 23.2511 127.674 23.2511C124.505 23.2511 122.766 21.3969 122.766 18.0294V8.81017H120.41V18.2829C120.41 22.6458 123.087 25.5307 127.666 25.5307C132.244 25.5307 134.919 22.6594 134.919 18.2829V8.81017H132.563L132.582 18.0294Z" fill="#060606"/>
<path d="M181.71 23.0002V17.8085H191.123V15.6353H181.71V11.0052H192.216V8.81017H179.354V25.1953H192.363V23.0002H181.71Z" fill="#060606"/>
<path d="M175.346 8.81017H172.99V25.1953H175.346V8.81017Z" fill="#060606"/>
<path d="M73.6266 8.81017L66.1007 25.1953H68.4866L70.4172 20.9197H78.7692L80.7025 25.1953H83.0884L75.5598 8.81017H73.6266ZM71.3715 18.8147L74.5946 11.6869L77.804 18.8147H71.3715Z" fill="#060606"/>
<path d="M143.62 8.81017L136.091 25.1953H138.48L140.41 20.9197H148.762L150.696 25.1953H153.082L145.553 8.81017H143.62ZM141.365 18.8147L144.588 11.6869L147.808 18.8147H141.365Z" fill="#060606"/>
<path d="M54.9919 22.1222L49.5302 8.81017H45.969V25.1953H48.2022V11.237L53.9748 25.1953H56.009L61.7815 11.237V25.1953H64.0147V8.81017H60.4536L54.9919 22.1222Z" fill="#060606"/>
<path d="M92.1085 10.6835C94.1591 10.6835 95.8578 11.6515 97.1585 13.5629L98.9663 12.1832C98.2268 11.0394 97.2112 10.1002 96.0132 9.45212C94.8152 8.80404 93.4733 8.46793 92.1113 8.47478C87.274 8.47478 83.5302 12.1668 83.5302 17.0041C83.5302 21.8414 87.274 25.5334 92.1113 25.5334C93.4743 25.5388 94.8167 25.2009 96.0147 24.5509C97.2128 23.9009 98.2279 22.9597 98.9663 21.8141L97.164 20.4507C95.8633 22.3595 94.1645 23.3302 92.114 23.3302C88.8582 23.3302 85.9379 20.9061 85.9379 17.0095C85.9379 13.113 88.8528 10.6835 92.1085 10.6835Z" fill="#060606"/>
<path d="M117.391 17.0041C117.391 12.3004 113.71 8.4775 108.995 8.4775C104.322 8.4775 100.6 12.2541 100.6 17.0041C100.6 21.7078 104.281 25.5307 108.995 25.5307C110.996 25.5384 112.933 24.8239 114.449 23.5183L116.295 25.1953H119.523L115.894 21.8932C116.877 20.4528 117.399 18.7478 117.391 17.0041ZM114.146 20.3035L111.995 18.3484L110.451 19.9054L112.742 21.9886C111.689 22.8624 110.363 23.3382 108.995 23.3329C105.625 23.3329 102.997 20.5598 102.997 17.0177C102.997 13.4757 105.636 10.6998 108.995 10.6998C112.355 10.6998 114.994 13.4757 114.994 17.0177C115.001 18.1679 114.709 19.3002 114.146 20.3035Z" fill="#060606"/>
<path d="M18.8132 0C8.61782 0 0.636581 7.44951 0.636581 17.0014C0.636581 26.5532 8.61782 34 18.8132 34C29.0085 34 36.987 26.5505 36.987 17.0014C36.987 7.45224 28.9949 0 18.8132 0ZM7.80251 28.7292C7.81824 28.7413 7.83126 28.7566 7.84071 28.774C7.85016 28.7915 7.85584 28.8107 7.85738 28.8305C7.85893 28.8503 7.8563 28.8702 7.84966 28.8889C7.84303 28.9076 7.83254 28.9247 7.81887 28.9391C7.76979 28.9828 7.67435 28.9773 7.58437 28.901C5.80438 27.47 4.36805 25.6579 3.38116 23.5983C2.39427 21.5387 1.88196 19.2839 1.88196 17C1.88196 14.7161 2.39427 12.4613 3.38116 10.4017C4.36805 8.34206 5.80438 6.53002 7.58437 5.09905C7.67435 5.0227 7.76979 5.01724 7.81887 5.06087C7.83254 5.07527 7.84303 5.09238 7.84966 5.11109C7.8563 5.1298 7.85893 5.1497 7.85738 5.16949C7.85584 5.18928 7.85016 5.20853 7.84071 5.22599C7.83126 5.24344 7.81824 5.25872 7.80251 5.27083C5.58293 7.59676 3.41788 11.4524 3.41788 17.0014C3.41788 22.5503 5.58293 26.4032 7.80251 28.7292ZM13.4251 24.2982C13.3869 24.3554 13.2915 24.3718 13.1851 24.2982C10.6465 22.7712 8.64236 20.3062 8.64236 16.9932C8.64236 13.6802 10.6465 11.2234 13.1797 9.69364C13.286 9.6282 13.3815 9.64456 13.4196 9.69364C13.438 9.72296 13.444 9.75834 13.4363 9.79206C13.4286 9.82578 13.408 9.8551 13.3787 9.87361C12.3609 10.7589 11.5476 11.8549 10.9953 13.0856C10.4431 14.3164 10.1649 15.6525 10.1802 17.0014C10.1668 18.3489 10.4464 19.6833 10.9996 20.9121C11.5528 22.1409 12.3665 23.2349 13.3842 24.1182C13.4134 24.1367 13.4341 24.166 13.4418 24.1998C13.4494 24.2335 13.4434 24.2689 13.4251 24.2982ZM18.8132 24.9226C14.8703 24.9226 11.4209 21.5032 11.4209 17.0014C11.4209 12.4995 14.8703 9.07739 18.8132 9.07739C22.7561 9.07739 26.2027 12.4968 26.2027 17.0014C26.2027 21.506 22.7534 24.9226 18.8132 24.9226ZM24.4385 24.3064C24.3321 24.3718 24.2367 24.3554 24.1985 24.3064C24.1896 24.2917 24.1836 24.2754 24.1809 24.2584C24.1783 24.2414 24.179 24.224 24.1831 24.2073C24.1871 24.1906 24.1944 24.1749 24.2046 24.161C24.2147 24.1471 24.2275 24.1353 24.2422 24.1264C25.2595 23.2427 26.0728 22.1487 26.626 20.92C27.1792 19.6912 27.459 18.357 27.4461 17.0095C27.46 15.6603 27.1807 14.3242 26.6275 13.0935C26.0743 11.8629 25.2605 10.767 24.2422 9.88179C24.2275 9.87284 24.2147 9.86109 24.2046 9.8472C24.1944 9.83331 24.1871 9.81756 24.1831 9.80084C24.179 9.78413 24.1783 9.76678 24.1809 9.74979C24.1836 9.7328 24.1896 9.7165 24.1985 9.70182C24.2367 9.64456 24.3321 9.6282 24.4385 9.70182C26.9771 11.2234 28.9949 13.6856 28.9949 17.0014C28.9949 20.3171 26.9771 22.7794 24.4385 24.3064ZM30.042 28.9037C29.9493 28.98 29.8566 28.9855 29.8075 28.9419C29.7928 28.9286 29.7811 28.9124 29.7731 28.8943C29.7651 28.8762 29.761 28.8566 29.761 28.8369C29.761 28.8171 29.7651 28.7975 29.7731 28.7795C29.7811 28.7614 29.7928 28.7452 29.8075 28.7319C32.0271 26.406 34.1948 22.5394 34.1948 17.0068C34.1948 11.4742 32.0134 7.60221 29.8075 5.28174C29.7928 5.26845 29.7811 5.25224 29.7731 5.23416C29.7651 5.21608 29.761 5.19653 29.761 5.17676C29.761 5.15699 29.7651 5.13743 29.7731 5.11935C29.7811 5.10127 29.7928 5.08507 29.8075 5.07178C29.8566 5.02815 29.9493 5.0336 30.042 5.10995C31.822 6.54093 33.2583 8.35297 34.2452 10.4126C35.2321 12.4722 35.7444 14.727 35.7444 17.0109C35.7444 19.2948 35.2321 21.5496 34.2452 23.6092C33.2583 25.6688 31.822 27.4809 30.042 28.9119V28.9037Z" fill="#060606"/>
</g>
<defs>
<clipPath id="clip0_1_13">
<rect width="193" height="34" fill="white"/>
</clipPath>
</defs>
</svg>
